<svg xmlns="http://www.w3.org/2000/svg" viewBox="0 0 64 64">
  <rect width="64" height="64" rx="18" fill="#B52A24"/>
  <path d="M32 10C19.85 10 10 19.3 10 30.8c0 6.3 2.97 11.92 7.65 15.73L15.17 54l7.9-2.48A23.1 23.1 0 0 0 32 53.34c12.15 0 22-9.3 22-20.79C54 19.3 44.15 10 32 10Z" fill="#fff" opacity=".16"/>
  <path d="m24.5 21 2.4-1.15 2.85 5.35-2.1 1.55c1.3 2.7 3.45 4.85 6.15 6.15l1.55-2.1 5.35 2.85-1.15 2.4c-.65 1.35-2.1 2.1-3.6 1.75-7.7-1.9-13.75-7.95-15.65-15.65-.35-1.5.4-2.95 1.75-3.6L24.5 21Z" fill="#fff"/>
</svg>
