<svg xmlns="http://www.w3.org/2000/svg" viewBox="0 0 240 64" role="img" aria-labelledby="title desc">
  <title id="title">OrderRise logo</title>
  <desc id="desc">A red rounded chat mark with the OrderRise wordmark.</desc>
  <rect width="64" height="64" rx="19" fill="#B52A24"/>
  <path d="M32 11C19.85 11 10 20.3 10 31.8c0 6.3 2.97 11.92 7.65 15.73l-2.48 7.47 7.9-2.48A23.1 23.1 0 0 0 32 54.34c12.15 0 22-9.3 22-20.79C54 20.3 44.15 11 32 11Z" fill="#fff" opacity=".16"/>
  <path d="m24.5 22 2.4-1.15 2.85 5.35-2.1 1.55c1.3 2.7 3.45 4.85 6.15 6.15l1.55-2.1 5.35 2.85-1.15 2.4c-.65 1.35-2.1 2.1-3.6 1.75-7.7-1.9-13.75-7.95-15.65-15.65-.35-1.5.4-2.95 1.75-3.6L24.5 22Z" fill="#fff"/>
  <text x="82" y="42" fill="#1D1D1F" font-family="Arial, sans-serif" font-size="31" font-weight="800" letter-spacing="-1.2">OrderRise</text>
</svg>
